<?xml version="1.0" encoding="UTF-8"?>
<svg width="3244px" height="337px" viewBox="0 0 3244 337" version="1.1" xmlns="http://www.w3.org/2000/svg" xmlns:xlink="http://www.w3.org/1999/xlink">
    <title>Light Jacket Weather Copy</title>
    <g id="Page-1" stroke="none" stroke-width="1" fill="none" fill-rule="evenodd">
        <g id="Artboard" transform="translate(-443.000000, -384.000000)" fill="#48473C" fill-rule="nonzero" stroke="#48473C" stroke-width="3">
            <g id="Light-Jacket-Weather-Copy" transform="translate(445.000000, 386.000000)">
                <path d="M7.94810379,78.9129213 L7.94810379,186.477528 C7.94810379,226.182584 5.05788423,239.537921 0,263 C22.0379242,262.639045 43.7145709,261.917135 65.752495,261.917135 C100.43513,261.917135 135.117764,262.639045 169.439122,263 C173.051896,247.839888 176.664671,232.679775 181,219.324438 C155.710579,226.543539 123.195609,236.650281 97.9061876,236.650281 C71.5329341,236.650281 71.5329341,223.294944 71.5329341,187.199438 L71.5329341,78.5519663 C71.5329341,46.4269663 74.7844311,28.7401685 79.8423154,6 C66.8363273,6 53.8303393,6.36095506 40.4630739,6.36095506 C27.0958084,6.36095506 13.7285429,6 0.361277445,6 C6.14171657,24.7696629 7.94810379,39.5688202 7.94810379,78.9129213 Z" id="Path"></path>
                <path d="M227.4,76.0060698 C247.56,76.0060698 260.52,65.8937785 260.52,50.0030349 C260.52,31.2230653 243.6,24 227.4,24 C211.2,24 195,32.6676783 195,50.0030349 C195,66.616085 207.24,76.0060698 227.4,76.0060698 Z M267,262 C263.4,247.553869 259.8,238.525038 259.8,218.661608 L259.8,94.0637329 C241.08,98.7587253 219.48,103.453718 196.44,107.787557 C200.76,117.538695 205.08,136.318665 205.08,151.125948 L205.08,219.022762 C205.08,240.330804 202.92,249.359636 198.24,262 L267,262 Z" id="Shape"></path>
                <path d="M378.861111,333 C427.972222,333 461.194444,312.368098 461.194444,276.533742 C461.194444,255.90184 456.5,246.490798 456.5,215.361963 L456.5,147.312883 C456.5,123.785276 459.027778,117.269939 463,102.429448 C454.694444,102.791411 446.388889,103.153374 438.444444,103.153374 C429.055556,103.153374 420.027778,102.791411 411,102.429448 L407.388889,116.184049 C399.444444,109.668712 385.361111,97 359,97 C310.611111,97 281,129.576687 281,181.699387 C281,231.650307 308.444444,258.797546 352.5,258.797546 C374.527778,258.797546 392.222222,251.920245 404.138889,243.957055 C404.138889,253.006135 409.555556,268.570552 409.555556,277.257669 C409.555556,291.736196 394.75,301.871166 373.083333,301.871166 C336.25,301.871166 313.138889,289.564417 287.861111,273.276074 C290.388889,286.668712 292.194444,300.06135 293.638889,313.815951 C318.555556,325.398773 340.583333,333 378.861111,333 Z M372,232.736196 C347.083333,232.736196 336.611111,211.380368 336.611111,175.907975 C336.611111,144.055215 346.722222,121.97546 373.083333,121.97546 C393.305556,121.97546 403.055556,133.920245 403.055556,160.705521 L403.055556,190.02454 C403.055556,214.638037 399.444444,232.736196 372,232.736196 Z" id="Shape"></path>
                <path d="M484.242798,78.7806897 L484.242798,224.416552 C484.242798,243.569655 480.983539,249.713103 477.72428,262 L547.255144,262 C543.633745,248.628966 540.374486,241.04 540.374486,221.525517 L540.374486,163.343448 C540.374486,139.492414 545.444444,122.868966 566.08642,122.868966 C587.452675,122.868966 590.711934,139.853793 590.711934,163.343448 L590.711934,224.416552 C590.711934,241.762759 587.452675,249.713103 584.555556,262 L653,262 C649.378601,249.713103 646.843621,242.485517 646.843621,224.416552 L646.843621,163.343448 C646.843621,119.616552 629.823045,97.2110345 587.814815,97.2110345 C561.016461,97.2110345 551.238683,105.161379 540.374486,112.750345 L540.374486,0 C520.09465,5.42068966 500.539095,10.48 477,15.177931 C481.707819,34.6924138 484.242798,42.6427586 484.242798,78.7806897 Z" id="Path"></path>
                <path d="M665,127.394737 L683.135593,127.394737 L683.135593,217.855263 C683.135593,246.802632 688.576271,256.572368 698.369492,262 L753.138983,262 C744.79661,251.506579 739.355932,245.717105 739.355932,217.855263 L739.355932,127.394737 L772,127.394737 L772,103.151316 L739.355932,103.151316 L739.355932,42 L710.701695,42 C707.074576,74.5657895 706.349153,97.7236842 665,103.151316 L665,127.394737 Z" id="Path"></path>
                <path d="M866.689055,257.53112 C885.445274,264.751037 904.562189,268 924.039801,268 C978.504975,268 997.621891,241.286307 997.621891,189.302905 L997.621891,68.7302905 C997.621891,42.0165975 1002.31095,27.2157676 1007,7 L927.646766,7 C933.41791,24.3278008 936.303483,34.4356846 936.303483,68.7302905 L936.303483,189.302905 C936.303483,218.904564 936.303483,242.008299 908.890547,242.008299 C886.166667,242.008299 871.378109,228.651452 862,217.460581 C863.803483,230.817427 865.967662,243.091286 866.689055,257.53112 Z" id="Path"></path>
                <path d="M1093.82993,120.016985 C1119.78912,120.016985 1119.78912,140.229299 1120.5102,150.335456 C1083.01361,157.193206 1021,166.577495 1021,219.63482 C1021,249.592357 1044.07483,268 1076.88435,268 C1103.20408,268 1115.10204,257.532909 1123.7551,249.231423 C1124.83673,253.923567 1125.55782,258.254777 1127,262.585987 L1180,262.585987 C1176.03401,246.343949 1173.5102,242.734607 1173.5102,219.273885 L1173.5102,156.832272 C1173.5102,120.016985 1149.35374,98 1104.64626,98 C1073.27891,98 1058.85714,105.218684 1036.86395,112.437367 L1031.81633,152.140127 C1052.36735,135.898089 1069.67347,120.016985 1093.82993,120.016985 Z M1093.82993,242.012739 C1080.85034,242.012739 1074,231.906582 1074,218.191083 C1074,188.233546 1099.2381,173.435244 1120.5102,172.713376 L1120.5102,210.972399 C1120.5102,227.936306 1111.4966,242.012739 1093.82993,242.012739 Z" id="Shape"></path>
                <path d="M1290.45495,98 C1231.71171,98 1194,136.259023 1194,184.624204 C1194,235.154989 1228.81081,268 1286.46622,268 C1323.09009,268 1340.85811,254.284501 1351.73649,247.787686 L1354.27477,219.995754 C1340.13288,229.380042 1320.91441,243.81741 1299.52027,243.81741 C1273.41216,243.81741 1256.36937,220.356688 1256.36937,181.73673 C1256.36937,144.199575 1271.96171,118.934183 1296.25676,118.934183 C1331.43018,118.934183 1352.46171,153.944798 1355,153.22293 C1352.46171,140.229299 1352.0991,132.649682 1352.0991,132.649682 C1351.01126,125.430998 1350.64865,124.348195 1349.1982,113.159236 C1337.59459,107.745223 1319.82658,98 1290.45495,98 Z" id="Path"></path>
                <path d="M1438.504,262 C1432.712,247.544828 1431.988,231.644138 1431.988,216.104828 L1431.988,204.54069 L1447.554,195.144828 C1469.636,222.609655 1481.582,243.569655 1484.84,262 L1550,262 C1530.452,213.213793 1508.732,190.446897 1487.374,164.427586 C1512.352,140.576552 1520.678,123.953103 1535.52,102.631724 C1528.28,102.993103 1521.04,103.354483 1513.438,103.354483 C1506.56,103.354483 1499.682,102.993103 1492.804,102.631724 C1488.822,131.542069 1464.93,152.502069 1431.988,175.268966 L1431.988,0 C1410.992,5.78206897 1396.15,10.8413793 1369,15.177931 C1373.344,25.657931 1375.878,52.7613793 1375.878,71.5531034 L1375.878,215.743448 C1375.878,235.61931 1373.344,252.965517 1369,262 L1438.504,262 Z" id="Path"></path>
                <path d="M1730,165.494692 C1723.48089,145.282378 1708.63179,98 1644.16499,98 C1589.11469,98 1550,134.454352 1550,188.233546 C1550,238.764331 1587.30382,268 1641.62978,268 C1685.45272,268 1702.83702,255.367304 1718.41046,246.343949 L1720.94567,217.469214 C1703.56137,229.019108 1681.46881,245.622081 1656.1167,245.622081 C1624.60765,245.622081 1617.72636,222.883227 1613.38028,211.333333 L1730,165.494692 Z M1643.44064,120.738854 C1657.92757,120.738854 1672.05231,130.484076 1672.05231,144.921444 C1672.05231,162.246285 1656.1167,171.991507 1633.66197,180.653928 L1608.67203,190.399151 C1607.94769,184.624204 1607.58551,178.849257 1607.58551,172.713376 C1607.58551,156.471338 1614.82897,120.738854 1643.44064,120.738854 Z" id="Shape"></path>
                <path d="M1736,127.394737 L1754.13559,127.394737 L1754.13559,217.855263 C1754.13559,246.802632 1759.57627,256.572368 1769.36949,262 L1824.13898,262 C1815.79661,251.506579 1810.35593,245.717105 1810.35593,217.855263 L1810.35593,127.394737 L1843,127.394737 L1843,103.151316 L1810.35593,103.151316 L1810.35593,42 L1781.70169,42 C1778.07458,74.5657895 1777.34915,97.7236842 1736,103.151316 L1736,127.394737 Z" id="Path"></path>
                <path d="M2001.98373,263 C2010.29067,262.638537 2018.23644,262.277075 2026.54338,262.277075 C2034.48915,262.277075 2042.43492,262.638537 2050.01952,263 C2070.96746,221.431786 2089.02603,172.995781 2096.9718,131.78903 C2107.80694,184.562588 2116.83623,205.165963 2146.45228,263 C2154.39805,262.638537 2162.34382,262.277075 2170.28959,262.277075 C2176.79067,262.277075 2183.29176,262.638537 2189.79284,263 C2203.87852,232.637131 2219.04772,202.274262 2228.07701,169.742616 C2250.46963,88.0520394 2260.9436,26.6033755 2266,6 C2259.13774,6 2252.63666,6.36146273 2245.7744,6.36146273 C2238.1898,6.36146273 2230.24403,6 2222.65944,6 C2223.38178,13.95218 2224.10412,21.9043601 2224.10412,29.8565401 C2224.10412,82.6300985 2202.43384,157.814346 2182.93059,205.888889 C2163.06616,149.862166 2137.78416,92.3895921 2137.78416,32.3867792 C2137.78416,23.7116737 2138.86768,14.6751055 2139.59002,6 C2129.47722,6 2119.7256,6.36146273 2109.6128,6.36146273 C2099.13883,6.36146273 2088.66486,6 2078.19089,6 C2079.99675,19.0126582 2081.44143,32.0253165 2081.44143,45.3994374 C2081.44143,114.438819 2059.77115,171.54993 2043.51844,206.611814 C2028.71041,160.344585 2005.23427,85.5218003 2005.23427,36.7243319 C2005.23427,26.2419128 2007.04013,16.1209564 2008.84599,6 C1995.84382,6 1983.20282,6.36146273 1970.56182,6.36146273 C1957.92082,6.36146273 1945.27983,6 1933,6 C1952.14208,73.954993 1951.41974,175.52602 2001.98373,263 Z" id="Path"></path>
                <path d="M2428,165.494692 C2421.48089,145.282378 2406.63179,98 2342.16499,98 C2287.11469,98 2248,134.454352 2248,188.233546 C2248,238.764331 2285.30382,268 2339.62978,268 C2383.45272,268 2400.83702,255.367304 2416.41046,246.343949 L2418.94567,217.469214 C2401.56137,229.019108 2379.46881,245.622081 2354.1167,245.622081 C2322.60765,245.622081 2315.72636,222.883227 2311.38028,211.333333 L2428,165.494692 Z M2341.44064,120.738854 C2355.92757,120.738854 2370.05231,130.484076 2370.05231,144.921444 C2370.05231,162.246285 2354.1167,171.991507 2331.66197,180.653928 L2306.67203,190.399151 C2305.94769,184.624204 2305.58551,178.849257 2305.58551,172.713376 C2305.58551,156.471338 2312.82897,120.738854 2341.44064,120.738854 Z" id="Shape"></path>
                <path d="M2514.82993,120.016985 C2540.78912,120.016985 2540.78912,140.229299 2541.5102,150.335456 C2504.01361,157.193206 2442,166.577495 2442,219.63482 C2442,249.592357 2465.07483,268 2497.88435,268 C2524.20408,268 2536.10204,257.532909 2544.7551,249.231423 C2545.83673,253.923567 2546.55782,258.254777 2548,262.585987 L2601,262.585987 C2597.03401,246.343949 2594.5102,242.734607 2594.5102,219.273885 L2594.5102,156.832272 C2594.5102,120.016985 2570.35374,98 2525.64626,98 C2494.27891,98 2479.85714,105.218684 2457.86395,112.437367 L2452.81633,152.140127 C2473.36735,135.898089 2490.67347,120.016985 2514.82993,120.016985 Z M2514.82993,242.012739 C2501.85034,242.012739 2495,231.906582 2495,218.191083 C2495,188.233546 2520.2381,173.435244 2541.5102,172.713376 L2541.5102,210.972399 C2541.5102,227.936306 2532.4966,242.012739 2514.82993,242.012739 Z" id="Shape"></path>
                <path d="M2615,127.394737 L2633.13559,127.394737 L2633.13559,217.855263 C2633.13559,246.802632 2638.57627,256.572368 2648.36949,262 L2703.13898,262 C2694.79661,251.506579 2689.35593,245.717105 2689.35593,217.855263 L2689.35593,127.394737 L2722,127.394737 L2722,103.151316 L2689.35593,103.151316 L2689.35593,42 L2660.70169,42 C2657.07458,74.5657895 2656.34915,97.7236842 2615,103.151316 L2615,127.394737 Z" id="Path"></path>
                <path d="M2743.2428,78.7806897 L2743.2428,224.416552 C2743.2428,243.569655 2739.98354,249.713103 2736.72428,262 L2806.25514,262 C2802.63374,248.628966 2799.37449,241.04 2799.37449,221.525517 L2799.37449,163.343448 C2799.37449,139.492414 2804.44444,122.868966 2825.08642,122.868966 C2846.45267,122.868966 2849.71193,139.853793 2849.71193,163.343448 L2849.71193,224.416552 C2849.71193,241.762759 2846.45267,249.713103 2843.55556,262 L2912,262 C2908.3786,249.713103 2905.84362,242.485517 2905.84362,224.416552 L2905.84362,163.343448 C2905.84362,119.616552 2888.82305,97.2110345 2846.81481,97.2110345 C2820.01646,97.2110345 2810.23868,105.161379 2799.37449,112.750345 L2799.37449,0 C2779.09465,5.42068966 2759.53909,10.48 2736,15.177931 C2740.70782,34.6924138 2743.2428,42.6427586 2743.2428,78.7806897 Z" id="Path"></path>
                <path d="M3106,165.494692 C3099.48089,145.282378 3084.63179,98 3020.16499,98 C2965.11469,98 2926,134.454352 2926,188.233546 C2926,238.764331 2963.30382,268 3017.62978,268 C3061.45272,268 3078.83702,255.367304 3094.41046,246.343949 L3096.94567,217.469214 C3079.56137,229.019108 3057.46881,245.622081 3032.1167,245.622081 C3000.60765,245.622081 2993.72636,222.883227 2989.38028,211.333333 L3106,165.494692 Z M3019.44064,120.738854 C3033.92757,120.738854 3048.05231,130.484076 3048.05231,144.921444 C3048.05231,162.246285 3032.1167,171.991507 3009.66197,180.653928 L2984.67203,190.399151 C2983.94769,184.624204 2983.58551,178.849257 2983.58551,172.713376 C2983.58551,156.471338 2990.82897,120.738854 3019.44064,120.738854 Z" id="Shape"></path>
                <path d="M3128.33837,160.203024 L3128.33837,220.077754 C3128.33837,240.276458 3125.07553,252.179266 3121.45015,263 C3133.77644,263 3145.74018,262.278618 3158.06647,262.278618 C3168.9426,262.278618 3179.81873,263 3190.69486,263 C3187.43202,251.818575 3184.16918,238.112311 3184.16918,219.356371 L3184.16918,189.419006 C3184.16918,160.563715 3188.1571,141.086393 3205.55891,141.086393 C3213.17221,141.086393 3220.06042,146.857451 3226.5861,151.185745 L3240,103.574514 C3233.83686,100.328294 3224.04834,97.8034557 3215.70997,97.8034557 C3193.23263,97.8034557 3185.98187,110.788337 3176.91843,123.051836 C3174.01813,109.706263 3172.56798,105.738661 3167.12991,96 L3120,108.984881 C3126.88822,131.347732 3128.33837,132.790497 3128.33837,160.203024 Z" id="Path"></path>
            </g>
        </g>
    </g>
</svg>
